<svg width="24" height="24" viewBox="0 0 24 24" fill="none" xmlns="http://www.w3.org/2000/svg">
<path d="M12 2L13.09 8.26L20 9L13.09 9.74L12 16L10.91 9.74L4 9L10.91 8.26L12 2Z" fill="#4F46E5"/>
<path d="M19 15L19.5 16.5L21 17L19.5 17.5L19 19L18.5 17.5L17 17L18.5 16.5L19 15Z" fill="#4F46E5"/>
<path d="M5 15L5.5 16.5L7 17L5.5 17.5L5 19L4.5 17.5L3 17L4.5 16.5L5 15Z" fill="#4F46E5"/>
<path d="M12 20C16.4183 20 20 16.4183 20 12C20 7.58172 16.4183 4 12 4C7.58172 4 4 7.58172 4 12C4 16.4183 7.58172 20 12 20Z" stroke="#4F46E5" stroke-width="2"/>
</svg>
